<svg width="17" height="16" viewBox="0 0 17 16" fill="none" xmlns="http://www.w3.org/2000/svg">
<path d="M9.00292 4.19329C9.06931 4.25527 9.122 4.329 9.15797 4.41024C9.19393 4.49148 9.21244 4.57862 9.21244 4.66663C9.21244 4.75463 9.19393 4.84177 9.15797 4.92301C9.122 5.00425 9.06931 5.07798 9.00292 5.13996L6.66542 7.33329L16.2917 7.33329C16.4795 7.33329 16.6597 7.40353 16.7925 7.52855C16.9254 7.65358 17 7.82315 17 7.99996C17 8.17677 16.9254 8.34634 16.7925 8.47136C16.6597 8.59639 16.4795 8.66662 16.2917 8.66662L6.66542 8.66662L9.00292 10.86C9.1363 10.9855 9.21123 11.1558 9.21123 11.3333C9.21123 11.5108 9.1363 11.6811 9.00292 11.8066C8.86954 11.9322 8.68863 12.0027 8.5 12.0027C8.31137 12.0027 8.13047 11.9322 7.99708 11.8066L4.45542 8.47329C4.39093 8.40989 4.34038 8.33513 4.30667 8.25329C4.26919 8.17349 4.24984 8.0872 4.24984 7.99996C4.24984 7.91271 4.26919 7.82642 4.30667 7.74662C4.34038 7.66479 4.39093 7.59003 4.45542 7.52662L7.99708 4.19329C8.06293 4.13081 8.14128 4.08121 8.22759 4.04736C8.31391 4.01352 8.40649 3.99609 8.5 3.99609C8.59351 3.99609 8.68609 4.01352 8.77241 4.04736C8.85873 4.08121 8.93707 4.13081 9.00292 4.19329Z" fill="#514D4D"/>
</svg>
