<svg width="17" height="16" viewBox="0 0 17 16" fill="none" xmlns="http://www.w3.org/2000/svg">
<g clip-path="url(#clip0_206_410)">
<path d="M7.99708 11.8067C7.93069 11.7447 7.878 11.671 7.84204 11.5898C7.80607 11.5085 7.78756 11.4214 7.78756 11.3334C7.78756 11.2454 7.80607 11.1582 7.84204 11.077C7.878 10.9958 7.93069 10.922 7.99708 10.86L10.3346 8.66671L0.708334 8.66671C0.520472 8.66671 0.340305 8.59647 0.207466 8.47145C0.0746281 8.34642 1.82693e-07 8.17685 1.74965e-07 8.00004C1.67236e-07 7.82323 0.0746281 7.65366 0.207466 7.52864C0.340305 7.40361 0.520472 7.33338 0.708333 7.33338L10.3346 7.33337L7.99708 5.14004C7.8637 5.01451 7.78877 4.84424 7.78877 4.66671C7.78877 4.48917 7.8637 4.31891 7.99708 4.19338C8.13046 4.06784 8.31137 3.99731 8.5 3.99731C8.68863 3.99731 8.86953 4.06784 9.00292 4.19338L12.5446 7.52671C12.6091 7.59011 12.6596 7.66487 12.6933 7.74671C12.7308 7.82651 12.7502 7.91279 12.7502 8.00004C12.7502 8.08729 12.7308 8.17357 12.6933 8.25337C12.6596 8.33521 12.6091 8.40997 12.5446 8.47337L9.00292 11.8067C8.93707 11.8692 8.85873 11.9188 8.77241 11.9526C8.68609 11.9865 8.59351 12.0039 8.5 12.0039C8.40649 12.0039 8.31391 11.9865 8.22759 11.9526C8.14127 11.9188 8.06293 11.8692 7.99708 11.8067Z" fill="#514D4D"/>
</g>
<defs>
<clipPath id="clip0_206_410">
<rect width="16" height="17" fill="white" transform="matrix(4.37114e-08 1 1 -4.37114e-08 0 0)"/>
</clipPath>
</defs>
</svg>
