<svg width="48" height="48" viewBox="0 0 48 48" fill="none" xmlns="http://www.w3.org/2000/svg">
<path d="M24.0002 38.226C22.1323 38.226 20.2826 37.8581 18.5568 37.1433C16.831 36.4284 15.263 35.3807 13.9421 34.0598C12.6212 32.739 11.5735 31.1709 10.8586 29.4451C10.1438 27.7193 9.77588 25.8697 9.77588 24.0017C9.77588 22.1337 10.1438 20.284 10.8586 18.5583C11.5735 16.8325 12.6212 15.2644 13.9421 13.9436C15.2629 12.6227 16.831 11.5749 18.5568 10.8601C20.2826 10.1453 22.1323 9.77734 24.0002 9.77734C27.7728 9.77735 31.3908 11.276 34.0584 13.9436C36.7259 16.6111 38.2246 20.2292 38.2246 24.0017C38.2246 27.7742 36.7259 31.3922 34.0584 34.0598C31.3908 36.7274 27.7728 38.226 24.0002 38.226Z" fill="#FFCEAF"/>
<path d="M25.0384 14.5764C23.3867 14.5764 22.9298 15.9381 22.6069 17.5579L21.696 23.6299L19.6076 24.277C18.0299 24.766 16.626 25.0568 16.626 26.7085C16.626 28.3603 17.9559 28.8773 19.6076 28.8773H24.2256C25.8774 28.8773 27.2072 27.5475 27.2072 25.8957V17.5579C27.2072 15.9062 26.6902 14.5764 25.0384 14.5764Z" fill="#FF7116"/>
<path d="M24.0386 1.50391C13.2991 1.50391 4.03047 9.10838 1.93529 19.6416C-0.159887 30.1747 5.4905 40.7484 15.4125 44.8582C25.3346 48.9681 36.8091 45.4896 42.7756 36.56C47.6212 29.3081 47.7557 20.0762 43.5679 12.7958C44.4909 12.9217 45.3667 12.3519 45.6256 11.4571C45.9141 10.461 45.3407 9.41967 44.3447 9.13089L39.1928 7.63513C39.1928 7.63513 38.2128 7.3836 37.4725 7.92987C36.7321 8.47613 36.7669 9.3464 36.7669 9.43019V14.607C36.7661 15.6445 37.6067 16.486 38.6441 16.4864C39.5396 16.4871 40.3109 15.8555 40.4869 14.9775C43.8075 20.9961 43.6337 28.5155 39.6535 34.4722C34.6696 41.9312 25.1397 44.8228 16.8518 41.3899C8.5639 37.9569 3.86993 29.1721 5.62004 20.3737C7.37015 11.5753 15.0679 5.26055 24.0386 5.26055C25.0761 5.25972 25.9163 4.41784 25.9151 3.38039C25.9143 2.34437 25.0747 1.50471 24.0386 1.50391Z" fill="#FF7116"/>
</svg>
