<svg width="20" height="20" viewBox="0 0 20 20" fill="none" xmlns="http://www.w3.org/2000/svg">
<path fill-rule="evenodd" clip-rule="evenodd" d="M9.84208 2.39551C14.1296 2.39551 17.6052 5.89243 17.6052 10.2061C17.6052 14.1045 14.7664 17.3358 11.0551 17.9218V12.4639H12.864L13.2082 10.2062H13.2081L13.2081 10.2061H11.0551V8.74166C11.0551 8.12398 11.3559 7.52126 12.3203 7.52126H13.2991V5.59912C13.2991 5.59912 13.2991 5.59911 13.2991 5.59911V5.59907C13.2991 5.59907 12.4104 5.44652 11.5613 5.44652C9.7881 5.44652 8.62908 6.5278 8.62908 8.48534V10.2061H6.65797V12.4639H6.65801V12.4639H8.62908V17.9218C4.91778 17.3359 2.07892 14.1045 2.07892 10.2061C2.07892 5.89243 5.5546 2.39551 9.84208 2.39551Z" fill="white"/>
</svg>
