<svg width="63" height="62" viewBox="0 0 63 62" fill="none" xmlns="http://www.w3.org/2000/svg">
<path d="M7.11462 6.78125H20.0702C22.3619 6.78125 24.3759 6.78125 26.1835 9.04294L29.7592 13.5625H55.5521C58.2356 13.5625 60.3959 15.7228 60.3959 18.4062V43.3516C60.3959 46.035 58.2356 48.1953 55.5521 48.1953H7.11462C4.43119 48.1953 2.27087 46.035 2.27087 43.3516V11.625C2.27087 8.94156 4.43119 6.78125 7.11462 6.78125Z" fill="#FF8645"/>
<path d="M13.8959 41.4788H48.7709C51.4543 41.4788 53.6146 39.3185 53.6146 36.6351V27.7227C53.6146 25.0392 51.4543 22.8789 48.7709 22.8789H13.8959C11.2124 22.8789 9.05212 25.0392 9.05212 27.7227V36.6351C9.05212 39.3185 11.2124 41.4788 13.8959 41.4788Z" fill="white"/>
<path d="M7.11462 32.8652H55.5521C58.2356 32.8652 60.3959 35.0255 60.3959 37.709V52.7966C60.3959 55.48 58.2356 57.6403 55.5521 57.6403H7.11462C4.43119 57.6403 2.27087 55.48 2.27087 52.7966V37.709C2.27087 35.0255 4.43119 32.8652 7.11462 32.8652Z" fill="#FFB43F"/>
<path d="M52.5789 45.7751C53.9169 45.7751 55.0025 44.6924 55.0031 43.3543C55.0026 42.0163 53.9169 40.9323 52.5789 40.9336H48.0558C46.7192 40.9336 45.6358 42.0177 45.6351 43.3543C45.6356 44.6909 46.7192 45.7743 48.0558 45.7751H52.5789Z" fill="white"/>
</svg>
