<svg width="37" height="37" viewBox="0 0 37 37" fill="none" xmlns="http://www.w3.org/2000/svg">
<circle cx="18.9419" cy="18.5508" r="18" fill="#F5EDFF"/>
<path d="M23.9419 16.8841C23.9419 16.4239 24.315 16.0508 24.7752 16.0508V16.0508C26.1559 16.0508 27.2752 17.1701 27.2752 18.5508V23.5508C27.2752 24.4713 26.529 25.2174 25.6086 25.2174H24.7752C24.315 25.2174 23.9419 24.8444 23.9419 24.3841V16.8841Z" fill="#9747FF"/>
<path fill-rule="evenodd" clip-rule="evenodd" d="M13.1086 11.8842C11.7279 11.8842 10.6086 13.0034 10.6086 14.3842V23.5508C10.6086 24.4713 11.3548 25.2175 12.2752 25.2175H13.9419C14.4022 25.2175 14.7752 24.8444 14.7752 24.3842V22.7175C14.7752 22.2573 15.1483 21.8842 15.6086 21.8842H17.2752C17.7355 21.8842 18.1086 22.2573 18.1086 22.7175V24.3842C18.1086 24.8444 18.4817 25.2175 18.9419 25.2175H20.6086C21.5291 25.2175 22.2752 24.4713 22.2752 23.5508V14.3842C22.2752 13.0034 21.156 11.8842 19.7752 11.8842H13.1086ZM16.4419 15.2175C15.9817 15.2175 15.6086 15.5906 15.6086 16.0508V16.8842H14.7752C14.315 16.8842 13.9419 17.2573 13.9419 17.7175C13.9419 18.1777 14.315 18.5508 14.7752 18.5508H15.6086V19.3842C15.6086 19.8444 15.9817 20.2175 16.4419 20.2175C16.9022 20.2175 17.2752 19.8444 17.2752 19.3842V18.5508H18.1086C18.5688 18.5508 18.9419 18.1777 18.9419 17.7175C18.9419 17.2573 18.5688 16.8842 18.1086 16.8842H17.2752V16.0508C17.2752 15.5906 16.9022 15.2175 16.4419 15.2175Z" fill="#9747FF"/>
</svg>
