<svg width="37" height="37" viewBox="0 0 37 37" fill="none" xmlns="http://www.w3.org/2000/svg">
<circle cx="18.0581" cy="18.4492" r="18" fill="#DFF3FA"/>
<path fill-rule="evenodd" clip-rule="evenodd" d="M26.3335 15.501C26.3335 15.9596 26.3024 16.4 26.2439 16.8227C26.2162 17.0228 26.0422 17.1676 25.8402 17.1676H22.2997L21.2662 14.756C21.1348 14.4496 20.8336 14.251 20.5002 14.251C20.1668 14.251 19.8656 14.4496 19.7342 14.756L18.0002 18.8022L17.5162 17.6727C17.3848 17.3663 17.0836 17.1676 16.7502 17.1676H10.1602C9.95816 17.1676 9.78422 17.0228 9.75652 16.8227C9.69802 16.4 9.66687 15.9596 9.66687 15.5011C9.66687 12.7396 11.9054 10.501 14.6669 10.501C15.9475 10.501 17.1156 10.9824 18.0002 11.7741C18.8848 10.9824 20.0529 10.501 21.3335 10.501C24.095 10.501 26.3335 12.7396 26.3335 15.501ZM10.8837 18.8343C10.591 18.8343 10.3906 19.1287 10.5143 19.394C12.1505 22.9011 15.7192 24.7116 17.2635 25.3554C17.7381 25.5533 18.2623 25.5533 18.7369 25.3554C20.2812 24.7116 23.8499 22.9011 25.4861 19.394C25.6098 19.1287 25.4094 18.8343 25.1167 18.8343H21.7502C21.4168 18.8343 21.1156 18.6356 20.9842 18.3292L20.5002 17.1998L18.7662 21.2459C18.6348 21.5523 18.3336 21.751 18.0002 21.751C17.6668 21.751 17.3656 21.5523 17.2342 21.2459L16.2007 18.8343H10.8837Z" fill="#1C88AD"/>
</svg>
