<svg width="37" height="37" viewBox="0 0 37 37" fill="none" xmlns="http://www.w3.org/2000/svg">
<circle cx="18.0581" cy="18.4492" r="18" fill="#FBE3E6"/>
<path d="M19.6669 12.1677C19.6669 11.7074 20.04 11.3344 20.5002 11.3344H24.6651C25.3227 11.3344 25.7212 12.0605 25.368 12.6152L23.2851 15.8868C23.1113 16.1598 23.1113 16.5089 23.2851 16.7819L25.368 20.0535C25.7212 20.6082 25.3227 21.3344 24.6651 21.3344H21.3335C20.4131 21.3344 19.6669 20.5882 19.6669 19.6677V12.1677Z" fill="#EE1D37"/>
<path d="M14.6669 10.5009C14.6669 10.0407 15.04 9.6676 15.5002 9.6676H16.3335C17.254 9.6676 18.0002 10.4138 18.0002 11.3343V18.8343C18.0002 19.2945 17.6271 19.6676 17.1669 19.6676H15.5002C15.04 19.6676 14.6669 19.2945 14.6669 18.8343V10.5009Z" fill="#EE1D37"/>
<path d="M11.3335 10.5009C11.3335 10.0407 11.7066 9.6676 12.1668 9.6676V9.6676C12.6271 9.6676 13.0002 10.0407 13.0002 10.5009V25.5009C13.0002 25.9612 12.6271 26.3343 12.1668 26.3343V26.3343C11.7066 26.3343 11.3335 25.9612 11.3335 25.5009V10.5009Z" fill="#EE1D37"/>
</svg>
