<svg width="62" height="62" viewBox="0 0 62 62" fill="none" xmlns="http://www.w3.org/2000/svg">
<path d="M40.0215 8.89985C33.3569 8.76658 26.4828 12.5831 24.5972 21.1946C16.9226 18.575 9.99321 23.7416 10.713 31.9909C6.69756 33.614 3.875 37.5368 3.875 42.1476C3.875 48.2189 8.76268 53.1066 14.834 53.1066H28.1467C28.143 49.4169 28.1353 42.0136 28.1353 40.6112L25.0134 41.7427C22.7485 42.7187 21.0757 39.8666 23.0153 38.0909L28.9224 32.3502C30.2716 31.0011 31.8831 31.1558 33.0775 32.3502L38.9846 38.0909C40.9242 39.8666 39.2515 42.7187 36.9866 41.7427L33.8646 40.6112V53.1066H47.166C53.2373 53.1066 58.125 48.2189 58.125 42.1476C58.125 37.6791 55.4727 33.8591 51.6541 32.1498C59.0532 17.725 49.762 9.09435 40.0215 8.89985Z" fill="url(#paint0_linear_203_897)"/>
<path d="M40.0215 8.8986C39.6502 8.89128 39.2427 8.90402 38.8711 8.9205C30.3589 22.3356 43.5141 32.1478 51.654 32.1478C59.0532 17.723 49.762 9.0931 40.0215 8.8986Z" fill="url(#paint1_linear_203_897)"/>
<defs>
<linearGradient id="paint0_linear_203_897" x1="31" y1="8.89648" x2="31" y2="53.1066" gradientUnits="userSpaceOnUse">
<stop stop-color="#FFBA8E"/>
<stop offset="1" stop-color="#FF9856"/>
</linearGradient>
<linearGradient id="paint1_linear_203_897" x1="31.4998" y1="20.999" x2="64.9998" y2="17.499" gradientUnits="userSpaceOnUse">
<stop stop-color="#FF7116"/>
<stop offset="1" stop-color="#FF7116" stop-opacity="0"/>
</linearGradient>
</defs>
</svg>
