<svg width="37" height="37" viewBox="0 0 37 37" fill="none" xmlns="http://www.w3.org/2000/svg">
<circle cx="18.9419" cy="18.5508" r="18" fill="#CDF8CF"/>
<path d="M10.6084 20.2171C10.6084 19.7569 10.9815 19.3838 11.4417 19.3838H26.4417C26.902 19.3838 27.2751 19.7569 27.2751 20.2171C27.2751 20.6774 26.902 21.0505 26.4417 21.0505H11.4417C10.9815 21.0505 10.6084 20.6774 10.6084 20.2171Z" fill="#2DB834"/>
<path fill-rule="evenodd" clip-rule="evenodd" d="M11.4419 16.8838C11.4419 14.1224 13.6805 11.8838 16.4419 11.8838H21.4419C24.2033 11.8838 26.4419 14.1224 26.4419 16.8838C26.4419 17.344 26.0688 17.7171 25.6086 17.7171H12.2752C11.815 17.7171 11.4419 17.344 11.4419 16.8838ZM16.4419 15.2171C16.4419 15.6774 16.0688 16.0505 15.6086 16.0505C15.1483 16.0505 14.7752 15.6774 14.7752 15.2171C14.7752 14.7569 15.1483 14.3838 15.6086 14.3838C16.0688 14.3838 16.4419 14.7569 16.4419 15.2171ZM18.9419 16.0505C19.4021 16.0505 19.7752 15.6774 19.7752 15.2171C19.7752 14.7569 19.4021 14.3838 18.9419 14.3838C18.4817 14.3838 18.1086 14.7569 18.1086 15.2171C18.1086 15.6774 18.4817 16.0505 18.9419 16.0505ZM23.1086 15.2171C23.1086 15.6774 22.7355 16.0505 22.2752 16.0505C21.815 16.0505 21.4419 15.6774 21.4419 15.2171C21.4419 14.7569 21.815 14.3838 22.2752 14.3838C22.7355 14.3838 23.1086 14.7569 23.1086 15.2171Z" fill="#2DB834"/>
<path d="M26.4419 23.5505C26.4419 24.4709 25.6957 25.2171 24.7752 25.2171H13.1086C12.1881 25.2171 11.4419 24.4709 11.4419 23.5505C11.4419 23.0902 11.815 22.7171 12.2752 22.7171H25.6086C26.0688 22.7171 26.4419 23.0902 26.4419 23.5505Z" fill="#2DB834"/>
</svg>
