<svg width="20" height="20" viewBox="0 0 20 20" fill="none" xmlns="http://www.w3.org/2000/svg">
<path d="M14.2378 11.1098L13.5307 11.817L13.5323 11.8185L14.2378 11.1098ZM14.1505 11.0226L13.4424 11.7286L13.4434 11.7297L14.1505 11.0226ZM14.2892 11.161L13.5837 11.8697L13.5845 11.8705L14.2892 11.161ZM14.2378 14.0667L13.5323 13.358L13.5304 13.3599L14.2378 14.0667ZM14.1262 14.1784L13.4188 13.4715L13.4181 13.4723L14.1262 14.1784ZM5.82159 5.87382L6.52771 6.58192L6.52846 6.58117L5.82159 5.87382ZM5.98447 5.71079L6.69315 6.41632L6.69392 6.41555L5.98447 5.71079ZM5.93328 5.76221L6.64014 6.46956L6.64196 6.46774L5.93328 5.76221ZM8.839 5.71079L8.1295 6.41555L8.1303 6.41632L8.839 5.71079ZM8.8902 5.76221L8.1815 6.46774L8.183 6.46932L8.8902 5.76221ZM8.9774 5.84949L8.2703 6.5566L8.2714 6.55764L8.9774 5.84949ZM9.1226 8.4858L8.4037 7.79064C8.1032 8.1014 8.0364 8.5701 8.2382 8.9525L9.1226 8.4858ZM11.5142 10.8774L11.0475 11.7618C11.4299 11.9636 11.8986 11.8968 12.2094 11.5963L11.5142 10.8774ZM18 10C18 14.4183 14.4183 18 10 18V20C15.5228 20 20 15.5228 20 10H18ZM2 10C2 5.58172 5.58172 2 10 2V0C4.47715 0 0 4.47715 0 10H2ZM10 2C14.4183 2 18 5.58172 18 10H20C20 4.47715 15.5228 0 10 0V2ZM1.72413 20H10V18H1.72413V20ZM2.88144 13.6546C2.31832 12.5603 2 11.3188 2 10H0C0 11.6445 0.39771 13.1989 1.10306 14.5697L2.88144 13.6546ZM2.19169 18.6772L3.08534 16.3186L1.21508 15.6099L0.32144 17.9685L2.19169 18.6772ZM1.10306 14.5697C1.29872 14.95 1.32331 15.3243 1.21508 15.6099L3.08534 16.3186C3.43555 15.3942 3.27781 14.4249 2.88144 13.6546L1.10306 14.5697ZM1.72413 18C2.07396 18 2.31564 18.35 2.19169 18.6772L0.32144 17.9685C-0.0504 18.9499 0.67465 20 1.72413 20V18ZM14.9449 10.4027L14.8576 10.3155L13.4434 11.7297L13.5307 11.817L14.9449 10.4027ZM14.9947 10.4524L14.9433 10.4012L13.5323 11.8185L13.5837 11.8697L14.9947 10.4524ZM15.7062 11.3565C15.4931 10.9351 15.1544 10.611 14.994 10.4516L13.5845 11.8705C13.6794 11.9648 13.7509 12.0365 13.8137 12.1095C13.8753 12.1812 13.9066 12.2297 13.9215 12.2592L15.7062 11.3565ZM15.7062 13.8201C16.0979 13.0456 16.0979 12.131 15.7062 11.3565L13.9215 12.2592C14.0262 12.4661 14.0262 12.7105 13.9215 12.9174L15.7062 13.8201ZM14.994 14.725C15.1544 14.5656 15.4931 14.2415 15.7062 13.8201L13.9215 12.9174C13.9066 12.9469 13.8753 12.9954 13.8137 13.067C13.7509 13.1401 13.6794 13.2118 13.5844 13.3061L14.994 14.725ZM14.9433 14.7754L14.9947 14.7242L13.5844 13.3061L13.5323 13.358L14.9433 14.7754ZM13.9587 15.5929C14.3608 15.367 14.6476 15.0717 14.8343 14.8845L13.4181 13.4723C13.2098 13.6812 13.1051 13.7785 12.9792 13.8492L13.9587 15.5929ZM12.3933 16C12.9149 16.0015 13.504 15.8483 13.9587 15.5929L12.9792 13.8492C12.8254 13.9356 12.5757 14.0005 12.3993 14L12.3933 16ZM11.3687 15.832C11.5967 15.897 11.9407 15.9986 12.3933 16L12.3993 14C12.2491 13.9996 12.1404 13.9723 11.9166 13.9085L11.3687 15.832ZM11.3334 15.822L11.3687 15.832L11.9166 13.9085L11.8807 13.8983L11.3334 15.822ZM6.82795 13.172C8.1242 14.4683 9.6817 15.3533 11.3334 15.822L11.8807 13.8983C10.5487 13.5203 9.2911 12.8068 8.2422 11.7578L6.82795 13.172ZM4.17785 8.666C4.64664 10.3177 5.53167 11.8758 6.82795 13.172L8.2422 11.7578C7.19321 10.7089 6.47992 9.4519 6.10186 8.1199L4.17785 8.666ZM4.1679 8.631L4.17785 8.666L6.10186 8.1199L6.09156 8.0837L4.1679 8.631ZM4.00001 7.60669C4.00136 8.0593 4.10293 8.403 4.1679 8.631L6.09156 8.0837C6.0278 7.8599 6.00045 7.75094 6 7.60075L4.00001 7.60669ZM4.40712 6.04125C4.15167 6.49599 3.99846 7.08511 4.00001 7.60669L6 7.60075C5.99948 7.42428 6.06439 7.17464 6.15083 7.02078L4.40712 6.04125ZM5.11548 5.16572C4.92832 5.35235 4.63297 5.63919 4.40712 6.04125L6.15083 7.02078C6.22153 6.89491 6.31882 6.79021 6.52771 6.58192L5.11548 5.16572ZM5.27579 5.00526L5.2246 5.05668L6.64196 6.46774L6.69315 6.41632L5.27579 5.00526ZM6.17993 4.29379C5.75852 4.50694 5.4344 4.8456 5.27503 5.00603L6.69392 6.41555C6.78823 6.32061 6.85995 6.2491 6.93295 6.18634C7.00461 6.12475 7.05309 6.09343 7.08263 6.07849L6.17993 4.29379ZM8.6435 4.29379C7.86902 3.90207 6.9544 3.90207 6.17993 4.29379L7.08263 6.07849C7.28955 5.97384 7.53389 5.97384 7.7408 6.07849L8.6435 4.29379ZM9.5484 5.00603C9.389 4.8456 9.0649 4.50694 8.6435 4.29379L7.7408 6.07849C7.77033 6.09343 7.81882 6.12475 7.89048 6.18634C7.96348 6.2491 8.0352 6.32061 8.1295 6.41555L9.5484 5.00603ZM9.5988 5.05668L9.5476 5.00526L8.1303 6.41632L8.1815 6.46774L9.5988 5.05668ZM9.6845 5.14238L9.5973 5.0551L8.183 6.46932L8.2703 6.5566L9.6845 5.14238ZM9.7174 5.17514L9.6835 5.14134L8.2714 6.55764L8.3053 6.59144L9.7174 5.17514ZM10.2113 5.75302C10.0425 5.49349 9.8235 5.28077 9.7174 5.17514L8.3053 6.59144C8.3677 6.65359 8.4151 6.70113 8.4578 6.74821C8.4998 6.79463 8.5229 6.82529 8.5345 6.84321L10.2113 5.75302ZM9.8414 9.1809C9.9452 9.0736 10.088 8.9179 10.2113 8.7283L8.5345 7.63809C8.516 7.66665 8.478 7.71386 8.4037 7.79064L9.8414 9.1809ZM10.2113 8.7283C10.7994 7.82371 10.7994 6.65758 10.2113 5.75302L8.5345 6.84321C8.6916 7.08487 8.6916 7.39642 8.5345 7.63809L10.2113 8.7283ZM11.2717 9.7887C11.0821 9.912 10.9264 10.0548 10.8191 10.1586L12.2094 11.5963C12.2861 11.522 12.3333 11.4841 12.3619 11.4655L11.2717 9.7887ZM14.247 9.7887C13.3424 9.2006 12.1763 9.2006 11.2717 9.7887L12.3619 11.4655C12.6036 11.3084 12.9151 11.3084 13.1568 11.4655L14.247 9.7887ZM14.8254 10.2831C14.7197 10.177 14.5065 9.9575 14.247 9.7887L13.1568 11.4655C13.1747 11.4771 13.2054 11.5002 13.2518 11.5422C13.2989 11.5849 13.3459 11.6318 13.4081 11.6942L14.8254 10.2831ZM14.8587 10.3165L14.8254 10.2831L13.4081 11.6942L13.4424 11.7286L14.8587 10.3165ZM11.9809 9.993C11.5746 9.7786 11.1914 9.4997 10.8459 9.1541L9.4317 10.5683C9.9204 11.057 10.466 11.455 11.0475 11.7618L11.9809 9.993ZM10.8459 9.1541C10.5003 8.8086 10.2214 8.4254 10.007 8.0191L8.2382 8.9525C8.545 9.534 8.943 10.0796 9.4317 10.5683L10.8459 9.1541ZM14.8335 14.8853L14.9451 14.7736L13.5304 13.3599L13.4188 13.4715L14.8335 14.8853ZM5.22641 5.05486L5.11473 5.16647L6.52846 6.58117L6.64014 6.46956L5.22641 5.05486Z" fill="white"/>
</svg>
