<svg width="63" height="62" viewBox="0 0 63 62" fill="none" xmlns="http://www.w3.org/2000/svg">
<g clip-path="url(#clip0_203_905)">
<path d="M5.83329 2.57617H57.5C60.3623 2.57617 62.6666 4.88051 62.6666 7.74284V43.1503C62.6666 46.0126 60.3623 48.3169 57.5 48.3169H5.83329C2.97096 48.3169 0.666626 46.0126 0.666626 43.1503V7.74284C0.666626 4.88051 2.97096 2.57617 5.83329 2.57617Z" fill="url(#paint0_linear_203_905)"/>
<path d="M15.3896 7.59959C14.5672 7.59959 13.4309 8.21662 13.4309 9.79439C13.4309 12.9667 11.8169 14.4595 7.78694 14.4595C6.84854 14.4595 5.797 15.2284 5.797 16.3496V34.5472C5.797 35.6684 6.84854 36.4373 7.78694 36.4373C11.8169 36.4373 13.4309 37.9301 13.4309 41.1025C13.4309 42.6802 14.5672 43.2973 15.3896 43.2973H47.9436C48.766 43.2973 49.9022 42.6802 49.9022 41.1025C49.9022 37.9301 51.5162 36.4373 55.5462 36.4373C56.4846 36.4373 57.5361 35.6684 57.5361 34.5472V16.3496C57.5361 15.2286 56.4846 14.4595 55.5462 14.4595C51.5162 14.4595 49.9022 12.9667 49.9022 9.79439C49.9022 8.21662 48.766 7.59959 47.9436 7.59959H15.3896Z" fill="white"/>
<path d="M23.3666 42.4409L23.4027 56.6522C23.407 58.7415 24.9083 59.8966 26.7691 59.2425L31.6666 57.5215L36.5634 59.2425C38.4242 59.8966 39.9255 58.7415 39.9296 56.6522L39.9658 42.4409C39.9691 40.8713 23.3633 40.8713 23.3666 42.4409Z" fill="#FF005D"/>
<path d="M31.6667 28.8672C37.2881 28.8672 41.8451 33.4242 41.8451 39.0455C41.8451 44.6669 37.2881 49.2239 31.6667 49.2239C26.0454 49.2239 21.4884 44.6669 21.4884 39.0455C21.4884 33.4242 26.0454 28.8672 31.6667 28.8672Z" fill="#FFB43F"/>
<path d="M20.9304 23.4805C19.5031 23.4819 18.3451 22.3256 18.3446 20.8984C18.3454 19.4712 19.5032 18.315 20.9304 18.3164H42.4071C43.8328 18.3172 44.9885 19.4727 44.989 20.8984C44.9883 22.3242 43.8328 23.4798 42.4071 23.4805H20.9304Z" fill="#59586E"/>
</g>
<defs>
<linearGradient id="paint0_linear_203_905" x1="49.5001" y1="43.5" x2="-6.49988" y2="-21.5" gradientUnits="userSpaceOnUse">
<stop stop-color="#FF7116"/>
<stop offset="1" stop-color="#FFC39C"/>
</linearGradient>
<clipPath id="clip0_203_905">
<rect width="62" height="62" fill="white" transform="translate(0.666626)"/>
</clipPath>
</defs>
</svg>
