<svg width="37" height="37" viewBox="0 0 37 37" fill="none" xmlns="http://www.w3.org/2000/svg">
<circle cx="18.9419" cy="18.5508" r="18" fill="#F2E8FF"/>
<path fill-rule="evenodd" clip-rule="evenodd" d="M19 27.3323C23.6023 27.3323 27.3333 23.6014 27.3333 18.999C27.3333 14.3966 23.6023 10.6656 19 10.6656C14.3976 10.6656 10.6666 14.3966 10.6666 18.999C10.6666 23.6014 14.3976 27.3323 19 27.3323ZM17.3333 16.499C17.3333 16.0387 17.7064 15.6656 18.1666 15.6656H19.8333C20.2935 15.6656 20.6666 16.0387 20.6666 16.499C20.6666 16.9592 21.0397 17.3323 21.5 17.3323C21.9602 17.3323 22.3333 16.9592 22.3333 16.499C22.3333 15.1183 21.214 13.999 19.8333 13.999V13.1656C19.8333 12.7054 19.4602 12.3323 19 12.3323C18.5397 12.3323 18.1666 12.7054 18.1666 13.1656V13.999C16.7859 13.999 15.6666 15.1183 15.6666 16.499V16.9644C15.6666 18.0405 16.3552 18.9958 17.3761 19.3361L20.0968 20.243C20.4371 20.3564 20.6666 20.6749 20.6666 21.0336V21.499C20.6666 21.9592 20.2935 22.3323 19.8333 22.3323H18.1666C17.7064 22.3323 17.3333 21.9592 17.3333 21.499C17.3333 21.0387 16.9602 20.6656 16.5 20.6656C16.0397 20.6656 15.6666 21.0387 15.6666 21.499C15.6666 22.8797 16.7859 23.999 18.1666 23.999V24.8323C18.1666 25.2926 18.5397 25.6657 19 25.6657C19.4602 25.6657 19.8333 25.2926 19.8333 24.8323V23.999C21.214 23.999 22.3333 22.8797 22.3333 21.499V21.0336C22.3333 19.9575 21.6447 19.0022 20.6239 18.6619L17.9031 17.755C17.5628 17.6415 17.3333 17.3231 17.3333 16.9644V16.499Z" fill="#8D3DF2"/>
</svg>
