<svg width="48" height="48" viewBox="0 0 48 48" fill="none" xmlns="http://www.w3.org/2000/svg">
<path d="M24.557 4.33957L7.10087 21.8221C4.91566 24.1143 6.2121 27.8961 9.56862 27.8961H15.6221C17.159 25.8352 18.7922 23.8499 20.405 21.8485C21.8682 20.1885 24.288 21.7867 23.4039 23.5182C21.1679 28.8693 18.5482 35.0259 16.0681 40.7337C14.8653 44.2591 19.1547 46.6569 21.7665 43.8177L41.3618 23.2775C42.8817 21.5553 41.9773 17.6878 38.5008 17.6877H26.9485L30.1146 6.7633C31.1588 2.64005 26.6532 2.03869 24.557 4.33957Z" fill="#FF7116"/>
<path d="M26.9749 17.6877C24.3377 23.515 24.0376 29.5806 30.7543 34.3721L41.3617 23.2775C42.8816 21.5553 41.9773 17.6877 38.5008 17.6877H26.9749Z" fill="#D0611A"/>
</svg>
