<svg width="20" height="20" viewBox="0 0 20 20" fill="none" xmlns="http://www.w3.org/2000/svg">
<path fill-rule="evenodd" clip-rule="evenodd" d="M17.6105 10.335C17.6105 9.78451 17.5611 9.2552 17.4694 8.74707H10.1579V11.75H14.3359C14.1559 12.7204 13.609 13.5426 12.7868 14.0931V16.0409H15.2957C16.7636 14.6894 17.6105 12.6992 17.6105 10.335Z" fill="white"/>
<path fill-rule="evenodd" clip-rule="evenodd" d="M10.158 17.9217C12.254 17.9217 14.0113 17.2265 15.2958 16.0409L12.7868 14.0931C12.0917 14.5588 11.2025 14.8341 10.158 14.8341C8.13601 14.8341 6.42459 13.4685 5.81412 11.6335H3.22052V13.6449C4.49791 16.182 7.12327 17.9217 10.158 17.9217Z" fill="white"/>
<path fill-rule="evenodd" clip-rule="evenodd" d="M5.81403 11.6335C5.65877 11.1677 5.57055 10.6701 5.57055 10.1585C5.57055 9.64682 5.65877 9.14927 5.81403 8.68348V6.67212H3.22043C2.69465 7.72015 2.39471 8.90579 2.39471 10.1585C2.39471 11.4112 2.69465 12.5968 3.22043 13.6448L5.81403 11.6335Z" fill="white"/>
<path fill-rule="evenodd" clip-rule="evenodd" d="M10.158 5.48313C11.2977 5.48313 12.3211 5.87481 13.1256 6.64407L15.3522 4.41746C14.0078 3.16477 12.2505 2.39551 10.158 2.39551C7.12327 2.39551 4.49791 4.13516 3.22052 6.6723L5.81412 8.68367C6.42459 6.84874 8.13601 5.48313 10.158 5.48313Z" fill="white"/>
</svg>
