<svg width="37" height="37" viewBox="0 0 37 37" fill="none" xmlns="http://www.w3.org/2000/svg">
<circle cx="18.9419" cy="18.5508" r="18" fill="#FFF2ED"/>
<path d="M14.7752 25.2175C14.7752 24.7573 15.1483 24.3842 15.6085 24.3842H22.2752C22.7354 24.3842 23.1085 24.7573 23.1085 25.2175C23.1085 25.6777 22.7354 26.0508 22.2752 26.0508H15.6085C15.1483 26.0508 14.7752 25.6777 14.7752 25.2175Z" fill="#FF7116"/>
<path fill-rule="evenodd" clip-rule="evenodd" d="M15.4419 22.7174C14.0418 22.7174 13.3417 22.7174 12.8069 22.445C12.3365 22.2053 11.9541 21.8228 11.7144 21.3524C11.4419 20.8176 11.4419 20.1176 11.4419 18.7174V15.0508C11.4419 13.6507 11.4419 12.9506 11.7144 12.4158C11.9541 11.9454 12.3365 11.5629 12.8069 11.3233C13.3417 11.0508 14.0418 11.0508 15.4419 11.0508H22.4419C23.842 11.0508 24.5421 11.0508 25.0769 11.3233C25.5473 11.5629 25.9297 11.9454 26.1694 12.4158C26.4419 12.9506 26.4419 13.6507 26.4419 15.0508V18.7174C26.4419 20.1176 26.4419 20.8176 26.1694 21.3524C25.9297 21.8228 25.5473 22.2053 25.0769 22.445C24.5421 22.7174 23.842 22.7174 22.4419 22.7174L15.4419 22.7174ZM13.9419 14.3841C13.9419 13.9239 14.315 13.5508 14.7752 13.5508H20.6086C21.0688 13.5508 21.4419 13.9239 21.4419 14.3841C21.4419 14.8444 21.0688 15.2174 20.6086 15.2174H14.7752C14.315 15.2174 13.9419 14.8444 13.9419 14.3841ZM14.7752 16.8841C14.315 16.8841 13.9419 17.2572 13.9419 17.7174C13.9419 18.1777 14.315 18.5508 14.7752 18.5508H16.4419C16.9021 18.5508 17.2752 18.1777 17.2752 17.7174C17.2752 17.2572 16.9021 16.8841 16.4419 16.8841H14.7752Z" fill="#FF7116"/>
</svg>
