<svg width="24" height="24" viewBox="0 0 24 24" fill="none" xmlns="http://www.w3.org/2000/svg">
<g clip-path="url(#clip0_205_383)">
<mask id="mask0_205_383" style="mask-type:luminance" maskUnits="userSpaceOnUse" x="0" y="0" width="24" height="24">
<path d="M24 0H0V24H24V0Z" fill="white"/>
</mask>
<g mask="url(#mask0_205_383)">
<path d="M9.2 8H14.8V6H9.2V8ZM17 10.2V13.8H19V10.2H17ZM14.8 16H9.2V18H14.8V16ZM7 13.8V10.2H5V13.8H7ZM9.2 16C8.62345 16 8.25117 15.9992 7.96784 15.9761C7.69617 15.9539 7.59545 15.9162 7.54601 15.891L6.63803 17.673C7.01641 17.8658 7.40963 17.9371 7.80497 17.9694C8.18864 18.0008 8.65645 18 9.2 18V16ZM5 13.8C5 14.3436 4.99922 14.8114 5.03057 15.195C5.06287 15.5904 5.13419 15.9836 5.32698 16.362L7.10899 15.454C7.0838 15.4045 7.04612 15.3038 7.02393 15.0322C7.00078 14.7488 7 14.3766 7 13.8H5ZM7.54601 15.891C7.35785 15.7951 7.20487 15.6422 7.10899 15.454L5.32698 16.362C5.6146 16.9265 6.07354 17.3854 6.63803 17.673L7.54601 15.891ZM17 13.8C17 14.3766 16.9992 14.7488 16.9761 15.0322C16.9539 15.3038 16.9162 15.4045 16.891 15.454L18.673 16.362C18.8658 15.9836 18.9371 15.5904 18.9694 15.195C19.0008 14.8114 19 14.3436 19 13.8H17ZM14.8 18C15.3436 18 15.8114 18.0008 16.195 17.9694C16.5904 17.9371 16.9836 17.8658 17.362 17.673L16.454 15.891C16.4045 15.9162 16.3038 15.9539 16.0322 15.9761C15.7488 15.9992 15.3766 16 14.8 16V18ZM16.891 15.454C16.7951 15.6422 16.6422 15.7951 16.454 15.891L17.362 17.673C17.9265 17.3854 18.3854 16.9265 18.673 16.362L16.891 15.454ZM14.8 8C15.3766 8 15.7488 8.00078 16.0322 8.02393C16.3038 8.04612 16.4045 8.0838 16.454 8.10899L17.362 6.32698C16.9836 6.13419 16.5904 6.06287 16.195 6.03057C15.8114 5.99922 15.3436 6 14.8 6V8ZM19 10.2C19 9.65645 19.0008 9.18864 18.9694 8.80497C18.9371 8.40963 18.8658 8.01641 18.673 7.63803L16.891 8.54601C16.9162 8.59545 16.9539 8.69617 16.9761 8.96784C16.9992 9.25117 17 9.62345 17 10.2H19ZM16.454 8.10899C16.6422 8.20487 16.7951 8.35785 16.891 8.54601L18.673 7.63803C18.3854 7.07354 17.9265 6.6146 17.362 6.32698L16.454 8.10899ZM9.2 6C8.65645 6 8.18864 5.99922 7.80497 6.03057C7.40963 6.06287 7.01641 6.13419 6.63803 6.32698L7.54601 8.10899C7.59545 8.0838 7.69617 8.04612 7.96784 8.02393C8.25117 8.00078 8.62345 8 9.2 8V6ZM7 10.2C7 9.62345 7.00078 9.25117 7.02393 8.96784C7.04612 8.69617 7.0838 8.59545 7.10899 8.54601L5.32698 7.63803C5.13419 8.01641 5.06287 8.40963 5.03057 8.80497C4.99922 9.18864 5 9.65645 5 10.2H7ZM6.63803 6.32698C6.07354 6.6146 5.6146 7.07354 5.32698 7.63803L7.10899 8.54601C7.20487 8.35785 7.35785 8.20487 7.54601 8.10899L6.63803 6.32698ZM6.3753 8.78087L10.7506 12.2811L12 10.7194L7.6247 7.21913L6.3753 8.78087ZM13.2494 12.2811L17.6247 8.78087L16.3753 7.21913L12 10.7194L13.2494 12.2811ZM10.7506 12.2811C11.481 12.8655 12.519 12.8655 13.2494 12.2811L12 10.7194L10.7506 12.2811ZM9 2H15V3.4569e-07H9V2ZM22 9V15H24V9H22ZM15 22H9V24H15V22ZM2 15V9H3.4569e-07V15H2ZM9 22C7.58337 22 6.58104 21.9992 5.79744 21.9352C5.02552 21.8721 4.55435 21.7527 4.18404 21.564L3.27606 23.346C3.9753 23.7023 4.73898 23.8554 5.63458 23.9286C6.51851 24.0008 7.61637 24 9 24V22ZM3.4569e-07 15C3.4569e-07 16.3836 -0.000777364 17.4815 0.0714423 18.3654C0.144616 19.261 0.297677 20.0247 0.653961 20.7239L2.43597 19.816C2.24729 19.4457 2.12787 18.9745 2.0648 18.2026C2.00078 17.419 2 16.4166 2 15H3.4569e-07ZM4.18404 21.564C3.43139 21.1805 2.81947 20.5686 2.43597 19.816L0.653961 20.7239C1.2292 21.8529 2.14708 22.7708 3.27606 23.346L4.18404 21.564ZM22 15C22 16.4166 21.9992 17.419 21.9352 18.2026C21.8721 18.9745 21.7527 19.4457 21.564 19.816L23.346 20.7239C23.7023 20.0247 23.8554 19.261 23.9286 18.3654C24.0008 17.4815 24 16.3836 24 15H22ZM15 24C16.3836 24 17.4815 24.0008 18.3654 23.9286C19.261 23.8554 20.0247 23.7023 20.7239 23.346L19.816 21.564C19.4457 21.7527 18.9745 21.8721 18.2026 21.9352C17.419 21.9992 16.4166 22 15 22V24ZM21.564 19.816C21.1805 20.5686 20.5686 21.1805 19.816 21.564L20.7239 23.346C21.8529 22.7708 22.7708 21.8529 23.346 20.7239L21.564 19.816ZM15 2C16.4166 2 17.419 2.00078 18.2026 2.0648C18.9745 2.12787 19.4457 2.24729 19.816 2.43597L20.7239 0.653961C20.0247 0.297677 19.261 0.144616 18.3654 0.0714423C17.4815 -0.000777364 16.3836 3.4569e-07 15 3.4569e-07V2ZM24 9C24 7.61637 24.0008 6.51851 23.9286 5.63458C23.8554 4.73898 23.7023 3.9753 23.346 3.27606L21.564 4.18404C21.7527 4.55435 21.8721 5.02552 21.9352 5.79744C21.9992 6.58104 22 7.58337 22 9H24ZM19.816 2.43597C20.5686 2.81947 21.1805 3.43139 21.564 4.18404L23.346 3.27606C22.7708 2.14708 21.8529 1.2292 20.7239 0.653961L19.816 2.43597ZM9 3.4569e-07C7.61637 3.4569e-07 6.51851 -0.000777364 5.63458 0.0714423C4.73898 0.144616 3.9753 0.297677 3.27606 0.653961L4.18404 2.43597C4.55435 2.24729 5.02552 2.12787 5.79744 2.0648C6.58104 2.00078 7.58337 2 9 2V3.4569e-07ZM2 9C2 7.58337 2.00078 6.58104 2.0648 5.79744C2.12787 5.02552 2.24729 4.55435 2.43597 4.18404L0.653961 3.27606C0.297677 3.9753 0.144616 4.73898 0.0714423 5.63458C-0.000777364 6.51851 3.4569e-07 7.61637 3.4569e-07 9H2ZM3.27606 0.653961C2.14708 1.2292 1.2292 2.14708 0.653961 3.27606L2.43597 4.18404C2.81947 3.43139 3.43139 2.81947 4.18404 2.43597L3.27606 0.653961Z" fill="white"/>
</g>
</g>
<defs>
<clipPath id="clip0_205_383">
<rect width="24" height="24" fill="white"/>
</clipPath>
</defs>
</svg>
