<svg width="37" height="37" viewBox="0 0 37 37" fill="none" xmlns="http://www.w3.org/2000/svg">
<circle cx="18.9419" cy="18.5508" r="18" fill="#CDF0F8"/>
<path fill-rule="evenodd" clip-rule="evenodd" d="M11.7724 12.864C11.4999 13.3988 11.4999 14.0989 11.4999 15.499V22.499C11.4999 23.8992 11.4999 24.5992 11.7724 25.134C12.0121 25.6044 12.3946 25.9869 12.865 26.2265C13.3997 26.499 14.0998 26.499 15.4999 26.499H22.4999C23.9001 26.499 24.6001 26.499 25.1349 26.2265C25.6053 25.9869 25.9878 25.6044 26.2275 25.134C26.4999 24.5992 26.4999 23.8992 26.4999 22.499V15.499C26.4999 14.0989 26.4999 13.3988 26.2275 12.864C25.9878 12.3936 25.6053 12.0112 25.1349 11.7715C24.6001 11.499 23.9001 11.499 22.4999 11.499H15.4999C14.0998 11.499 13.3997 11.499 12.865 11.7715C12.3946 12.0112 12.0121 12.3936 11.7724 12.864ZM21.4999 17.3324C21.4999 17.7926 21.873 18.1657 22.3333 18.1657C22.7935 18.1657 23.1666 17.7926 23.1666 17.3324V16.499H23.9999C24.4602 16.499 24.8333 16.1259 24.8333 15.6657C24.8333 15.2055 24.4602 14.8324 23.9999 14.8324H23.1666V13.999C23.1666 13.5388 22.7935 13.1657 22.3333 13.1657C21.873 13.1657 21.4999 13.5388 21.4999 13.999V14.8324H20.6666C20.2064 14.8324 19.8333 15.2055 19.8333 15.6657C19.8333 16.1259 20.2064 16.499 20.6666 16.499H21.4999V17.3324ZM13.1666 15.6657C13.1666 15.2055 13.5397 14.8324 13.9999 14.8324H17.3333C17.7935 14.8324 18.1666 15.2055 18.1666 15.6657C18.1666 16.1259 17.7935 16.499 17.3333 16.499H13.9999C13.5397 16.499 13.1666 16.1259 13.1666 15.6657ZM20.6666 19.8324C20.2064 19.8324 19.8333 20.2055 19.8333 20.6657C19.8333 21.1259 20.2064 21.499 20.6666 21.499H23.9999C24.4602 21.499 24.8333 21.1259 24.8333 20.6657C24.8333 20.2055 24.4602 19.8324 23.9999 19.8324H20.6666ZM19.8333 23.999C19.8333 23.5388 20.2064 23.1657 20.6666 23.1657H23.9999C24.4602 23.1657 24.8333 23.5388 24.8333 23.999C24.8333 24.4593 24.4602 24.8324 23.9999 24.8324H20.6666C20.2064 24.8324 19.8333 24.4593 19.8333 23.999ZM15.0059 20.4931C14.6804 20.1677 14.1528 20.1677 13.8273 20.4931C13.5019 20.8185 13.5019 21.3462 13.8273 21.6716L14.4881 22.3324L13.8273 22.9931C13.5019 23.3185 13.5019 23.8462 13.8273 24.1716C14.1528 24.497 14.6804 24.497 15.0059 24.1716L15.6666 23.5109L16.3274 24.1716C16.6528 24.497 17.1804 24.497 17.5059 24.1716C17.8313 23.8462 17.8313 23.3185 17.5059 22.9931L16.8451 22.3324L17.5059 21.6716C17.8313 21.3462 17.8313 20.8185 17.5059 20.4931C17.1804 20.1677 16.6528 20.1677 16.3274 20.4931L15.6666 21.1538L15.0059 20.4931Z" fill="#0C9FC0"/>
</svg>
