<svg width="36" height="37" viewBox="0 0 36 37" fill="none" xmlns="http://www.w3.org/2000/svg">
<circle cx="18" cy="18.8965" r="18" fill="#F5EDFF"/>
<path d="M23 17.3333C23 16.8731 23.3731 16.5 23.8333 16.5C25.214 16.5 26.3333 17.6193 26.3333 19V24C26.3333 24.9205 25.5871 25.6667 24.6667 25.6667H23.8333C23.3731 25.6667 23 25.2936 23 24.8333V17.3333Z" fill="#9747FF"/>
<path fill-rule="evenodd" clip-rule="evenodd" d="M12.1667 12.3333C10.786 12.3333 9.66667 13.4525 9.66667 14.8333V23.9999C9.66667 24.9204 10.4129 25.6666 11.3333 25.6666H13C13.4602 25.6666 13.8333 25.2935 13.8333 24.8333V23.1666C13.8333 22.7063 14.2064 22.3333 14.6667 22.3333H16.3333C16.7936 22.3333 17.1667 22.7063 17.1667 23.1666V24.8333C17.1667 25.2935 17.5398 25.6666 18 25.6666H19.6667C20.5871 25.6666 21.3333 24.9204 21.3333 23.9999V14.8333C21.3333 13.4525 20.214 12.3333 18.8333 12.3333H12.1667ZM15.5 15.6666C15.0398 15.6666 14.6667 16.0397 14.6667 16.4999V17.3333H13.8333C13.3731 17.3333 13 17.7063 13 18.1666C13 18.6268 13.3731 18.9999 13.8333 18.9999H14.6667V19.8333C14.6667 20.2935 15.0398 20.6666 15.5 20.6666C15.9602 20.6666 16.3333 20.2935 16.3333 19.8333V18.9999H17.1667C17.6269 18.9999 18 18.6268 18 18.1666C18 17.7063 17.6269 17.3333 17.1667 17.3333H16.3333V16.4999C16.3333 16.0397 15.9602 15.6666 15.5 15.6666Z" fill="#9747FF"/>
</svg>
