<svg width="48" height="48" viewBox="0 0 48 48" fill="none" xmlns="http://www.w3.org/2000/svg">
<path d="M6.00018 34.0268V38.9995C6.00018 42.3235 8.67615 44.9996 12.0002 44.9996H36.0001C39.3242 44.9996 42.0002 42.3235 42.0002 38.9995V34.1204C42.0002 20.4739 6.00018 20.7898 6.00018 34.0268Z" fill="#FF7116"/>
<path d="M32.4401 11.4439C32.4401 13.6824 31.5509 15.8292 29.9681 17.412C28.3853 18.9949 26.2385 19.884 24 19.884C22.8917 19.884 21.7941 19.6658 20.7701 19.2416C19.7461 18.8175 18.8157 18.1958 18.032 17.412C17.2482 16.6283 16.6265 15.6978 16.2024 14.6737C15.7782 13.6497 15.5599 12.5523 15.5599 11.4439C15.5599 10.3356 15.7782 9.23796 16.2024 8.21396C16.6266 7.18996 17.2482 6.25959 18.032 5.47586C18.8157 4.69212 19.7461 4.0704 20.7701 3.64624C21.7941 3.22209 22.8917 3.00385 24 3.00385C26.2385 3.00386 28.3852 3.89303 29.968 5.47586C31.5509 7.05868 32.4401 9.2055 32.4401 11.4439Z" fill="#FF7116"/>
<path d="M31.2769 24.7734C24.5321 29.4152 20.2558 36.8958 19.7363 45.067H36.0569C39.3861 45.067 42.0663 42.3868 42.0663 39.0576V34.1719C42.0663 29.2068 37.3362 26.0976 31.2769 24.7734Z" fill="#D0611A"/>
</svg>
