<svg width="24" height="32" viewBox="0 0 24 32" fill="none" xmlns="http://www.w3.org/2000/svg">
<path d="M21 11.1552H3C2.73478 11.1552 2.48043 11.0206 2.29289 10.781C2.10536 10.5414 2 10.2164 2 9.87759C2 9.53874 2.10536 9.21378 2.29289 8.97418C2.48043 8.73458 2.73478 8.59998 3 8.59998H21C21.2652 8.59998 21.5196 8.73458 21.7071 8.97418C21.8946 9.21378 22 9.53874 22 9.87759C22 10.2164 21.8946 10.5414 21.7071 10.781C21.5196 11.0206 21.2652 11.1552 21 11.1552V11.1552ZM3 21.3761H21C21.2652 21.3761 21.5196 21.5107 21.7071 21.7503C21.8946 21.9899 22 22.3149 22 22.6537C22 22.9925 21.8946 23.3175 21.7071 23.5571C21.5196 23.7967 21.2652 23.9313 21 23.9313H3C2.73478 23.9313 2.48043 23.7967 2.29289 23.5571C2.10536 23.3175 2 22.9925 2 22.6537C2 22.3149 2.10536 21.9899 2.29289 21.7503C2.48043 21.5107 2.73478 21.3761 3 21.3761ZM3 14.988H21C21.2652 14.988 21.5196 15.1226 21.7071 15.3622C21.8946 15.6018 22 15.9268 22 16.2656C22 16.6045 21.8946 16.9295 21.7071 17.1691C21.5196 17.4087 21.2652 17.5433 21 17.5433H3C2.73478 17.5433 2.48043 17.4087 2.29289 17.1691C2.10536 16.9295 2 16.6045 2 16.2656C2 15.9268 2.10536 15.6018 2.29289 15.3622C2.48043 15.1226 2.73478 14.988 3 14.988Z" fill="black"/>
</svg>
